<?xml version="1.0" encoding="UTF-8" standalone="no"?>
<!-- Created with Inkscape (http://www.inkscape.org/) -->

<svg
   width="29.665768mm"
   height="33.866665mm"
   viewBox="0 0 29.665767 33.866665"
   version="1.1"
   id="svg1"
   xml:space="preserve"
   xmlns="http://www.w3.org/2000/svg"
   xmlns:svg="http://www.w3.org/2000/svg"><defs
     id="defs1" /><g
     id="layer2"
     transform="scale(0.19160133)"><g
       id="g1"><path
         style="fill:#000000;fill-opacity:1;stroke:#000000;stroke-width:0.264583px;stroke-linecap:butt;stroke-linejoin:miter;stroke-opacity:1"
         d="m 104.97282,116.91061 c -0.22814,-0.0144 -0.68443,-0.0432 -1.16997,-1.42938 -0.48554,-1.38623 -1.00032,-4.12981 -1.5151,-6.87345 0,0 -26.703251,7.33785 -26.703251,7.33785 -0.05065,-1.25128 -0.10131,-2.50256 -0.05168,-3.6793 0.04964,-1.17673 0.199555,-2.27887 0.4916,-3.3256 0.292045,-1.04672 0.726193,-2.03797 4.421789,-5.03823 3.695596,-3.00027 11.746741,-8.797306 19.250829,-14.200449 C 99.11218,87.234325 98.527323,84.7666 98.066113,82.465187 97.604902,80.163774 97.267352,78.028758 96.99883,75.683492 96.730307,73.338225 96.530828,70.782856 96.360432,68.472532 96.190036,66.162207 96.048734,64.097065 95.97503,58.521443 95.90133,52.94582 95.89522,43.86012 95.88912,34.774239 c 0,0 -18.07115,-0.321903 -18.07115,-0.321903 0,0 -45.054342,11.769156 -45.054342,11.769156 -1.530418,1.539898 -3.060835,3.079795 -3.956849,3.802182 -0.896014,0.722387 -1.157609,0.627268 -0.84674,-1.118179 0.310868,-1.745446 1.19417,-5.141077 1.812291,-7.120584 0.618121,-1.979508 0.971029,-2.542799 11.182784,-7.833454 C 51.166872,28.660802 71.236666,18.643195 81.679722,13.318435 92.122779,7.9936755 92.938661,7.36199 93.705354,6.6110299 c 0.766692,-0.7509601 1.484147,-1.6211463 2.201617,-2.4913498 0.09946,-13.9545294 0.198912,-27.9090591 0.341766,-35.7212811 0.142855,-7.812222 0.3291,-9.482069 0.631886,-11.303002 0.302785,-1.820932 0.72209,-3.792834 1.328604,-5.817991 0.606513,-2.025158 1.400194,-4.103449 2.162163,-5.760707 0.76198,-1.657259 1.49219,-2.893386 2.27215,-3.749401 0.77996,-0.856015 1.6096,-1.331862 2.44345,-1.338606 0.83385,-0.0067 1.67185,0.455605 2.45074,1.254572 0.77889,0.798968 1.49861,1.934493 2.27601,3.638968 0.7774,1.704475 1.61243,3.977781 2.19361,5.808767 0.58119,1.830986 0.9085,3.219554 1.21569,4.960628 0.30719,1.741073 0.59424,3.83454 0.74453,11.915887 0.15029,8.081347 0.16383,22.1499683 0.17736,36.2188715 0.77642,0.8735811 1.55284,1.7471622 2.24125,2.4242614 0.6884,0.6770992 1.28878,1.1577039 11.62868,6.3992561 10.3399,5.241553 30.41851,15.243647 40.66651,20.483188 10.248,5.239541 10.66498,5.716313 11.39005,7.749835 0.72507,2.033522 1.75818,5.62364 2.13942,7.473932 0.38123,1.850292 0.11057,1.960676 -0.16009,2.071062 0,0 -4.80069,-4.768667 -4.80069,-4.768667 0,0 -44.69477,-11.656439 -44.69477,-11.656439 0,0 -18.23973,0.249151 -18.23973,0.249151 0.0223,9.224061 0.0445,18.448122 -0.12609,25.400777 -0.17063,6.952655 -0.53414,11.633716 -0.87862,14.951848 -0.34448,3.318132 -0.66991,5.273164 -1.12637,7.507964 -0.45646,2.2348 -1.04393,4.749231 -1.6314,7.263712 7.49491,5.308881 14.98982,10.617764 18.90131,13.577934 3.91149,2.96016 4.23955,3.57159 4.53858,4.66076 0.29902,1.08916 0.569,2.65598 0.67657,4.04847 0.10756,1.39249 0.0527,2.61056 -0.002,3.82866 0,0 -26.67663,-7.34672 -26.67663,-7.34672 -0.52406,2.74655 -1.04811,5.4931 -1.51308,6.8897 -0.46497,1.3966 -0.87085,1.44324 -1.07379,1.46657 -0.20294,0.0233 -0.20293,0.0233 -0.43107,0.009 z"
         id="path1"
         transform="translate(-27.702131,59.703673)" /></g></g></svg>
