<?xml version="1.0" encoding="UTF-8" standalone="no"?>
<!-- Created with Inkscape (http://www.inkscape.org/) -->

<svg
   width="182.20247mm"
   height="57.706905mm"
   viewBox="0 0 182.20247 57.706905"
   version="1.1"
   id="svg1"
   xml:space="preserve"
   inkscape:version="1.3.2 (1:1.3.2+202311252150+091e20ef0f)"
   sodipodi:docname="plane.svg"
   xmlns:inkscape="http://www.inkscape.org/namespaces/inkscape"
   xmlns:sodipodi="http://sodipodi.sourceforge.net/DTD/sodipodi-0.dtd"
   xmlns="http://www.w3.org/2000/svg"
   xmlns:svg="http://www.w3.org/2000/svg"><sodipodi:namedview
     id="namedview1"
     pagecolor="#505050"
     bordercolor="#ffffff"
     borderopacity="1"
     inkscape:showpageshadow="0"
     inkscape:pageopacity="0"
     inkscape:pagecheckerboard="1"
     inkscape:deskcolor="#d1d1d1"
     inkscape:document-units="mm"
     inkscape:zoom="1.005773"
     inkscape:cx="264.97033"
     inkscape:cy="192.38934"
     inkscape:window-width="2560"
     inkscape:window-height="1368"
     inkscape:window-x="1920"
     inkscape:window-y="40"
     inkscape:window-maximized="1"
     inkscape:current-layer="layer2" /><defs
     id="defs1"><inkscape:path-effect
       effect="bspline"
       id="path-effect4"
       is_visible="true"
       lpeversion="1.3"
       weight="33.333333"
       steps="2"
       helper_size="0"
       apply_no_weight="true"
       apply_with_weight="true"
       only_selected="false"
       uniform="false" /><inkscape:path-effect
       effect="powerstroke"
       id="path-effect3"
       is_visible="true"
       lpeversion="1.3"
       scale_width="1"
       interpolator_type="CentripetalCatmullRom"
       interpolator_beta="0.75"
       start_linecap_type="round"
       end_linecap_type="round"
       offset_points="7.6140537,0.6975555"
       linejoin_type="spiro"
       miter_limit="4"
       not_jump="true"
       sort_points="true"
       message="&lt;b&gt;Ctrl+kliknij&lt;/b&gt; istniejący węzeł i przesuń go" /><inkscape:path-effect
       effect="simplify"
       id="path-effect2"
       is_visible="true"
       lpeversion="1.3"
       threshold="0.012"
       steps="1"
       smooth_angles="0"
       helper_size="0"
       simplify_individual_paths="false"
       simplify_just_coalesce="false"
       step="1" /><inkscape:path-effect
       effect="bspline"
       id="path-effect1"
       is_visible="true"
       lpeversion="1.3"
       weight="33.333333"
       steps="2"
       helper_size="0"
       apply_no_weight="true"
       apply_with_weight="true"
       only_selected="false"
       uniform="false" /></defs><g
     inkscape:groupmode="layer"
     id="layer2"
     inkscape:label="Warstwa 2"
     transform="matrix(-1,0,0,1,210.20056,4.6692084e-6)"><path
       style="fill:#000000;stroke:none;stroke-width:1px;stroke-linecap:butt;stroke-linejoin:miter;stroke-opacity:1"
       d="m 98.410468,529.33302 c 0,0 25.946142,-8.17752 25.946142,-8.17752"
       id="path1"
       inkscape:path-effect="#path-effect1"
       inkscape:original-d="M 98.410468,529.33302 124.35661,521.1555"
       transform="translate(7.7157866)" /><path
       style="fill:#000000;fill-opacity:1;stroke:#000002;stroke-width:0.265;stroke-linecap:butt;stroke-linejoin:miter;stroke-dasharray:none;stroke-opacity:1"
       d="m 66.351974,157.52611 c -6.437624,-0.0141 -19.312876,-0.0423 -26.738695,-0.16777 -7.42582,-0.12546 -9.402133,-0.34818 -11.341894,-0.69974 -1.939761,-0.35157 -3.842859,-0.83194 -5.967752,-1.55473 -2.124892,-0.72278 -4.471447,-1.68792 -5.963988,-2.60073 -1.492541,-0.91282 -2.130993,-1.77325 -2.201624,-2.6662 -0.07063,-0.89296 0.426551,-1.8184 1.745415,-2.85635 1.318864,-1.03796 3.459315,-2.18837 4.857706,-3.16915 1.398391,-0.98078 2.054653,-1.79188 3.342913,-2.5884 1.288259,-0.79653 3.208431,-1.57844 5.579568,-2.28207 2.371136,-0.70363 5.193093,-1.32895 8.690771,-1.67472 3.497678,-0.34577 7.670853,-0.41198 22.204258,-0.44659 14.533404,-0.0346 39.425958,-0.0376 64.319008,-0.0406 0.82768,-1.06432 1.65536,-2.12864 2.30194,-2.80379 0.64657,-0.67515 1.11203,-0.96111 1.77031,-1.17914 0.65829,-0.21802 1.50938,-0.3681 2.36048,-0.51818 0,0 -1.2449,4.53842 -1.2449,4.53842 0,0 12.68502,-0.0273 12.68502,-0.0273 0,0 13.207,-4.31354 13.207,-4.31354 7.27211,-8.03748 14.54423,-16.07497 18.69873,-20.38086 4.1545,-4.30589 5.19135,-4.88016 7.70994,-5.17448 2.51859,-0.29433 6.51874,-0.30869 10.51898,-0.32306 0,0 -10.63999,31.50047 -10.63999,31.50047 1.52766,-0.39939 3.05533,-0.79879 5.37112,-1.05736 2.31578,-0.25858 5.41957,-0.37633 8.52342,-0.49408 0,0 -7.96652,4.20085 -7.96652,4.20085 -0.14997,1.57716 -0.29995,3.15433 -0.7288,4.15375 -0.42886,0.99941 -1.13656,1.42107 -3.96795,2.43058 -2.8314,1.00952 -7.78627,2.60682 -12.24195,3.85996 -4.45568,1.25315 -8.41191,2.16208 -12.06949,2.95858 -3.65757,0.7965 -7.01627,1.48053 -10.05357,1.9837 -3.0373,0.50318 -5.75302,0.82546 -13.83698,1.07624 -8.08396,0.25079 -21.53557,0.43006 -34.98744,0.60934 -0.079,0.70657 -0.15808,1.41315 -0.913509,1.92683 -0.75543,0.51368 -2.187198,0.83446 -3.214753,1.33061 -1.027554,0.49614 -1.650836,1.16761 -3.850772,1.7472 -2.199935,0.57958 -5.976354,1.06725 -9.289514,1.18491 -3.31316,0.11766 -6.16287,-0.13468 -7.770868,-0.41548 -1.607999,-0.28079 -1.974209,-0.59001 -2.176914,-1.60368 -0.202705,-1.01368 -0.241893,-2.73173 -0.281081,-4.44981 0,0 0,4.7e-4 -6.437625,-0.0136 z"
       id="path4"
       inkscape:path-effect="#path-effect4"
       inkscape:original-d="m 72.789599,157.54021 c -12.875249,-0.0282 -25.750501,-0.0564 -38.62575,-0.0846 -1.97639,-0.22273 -3.952703,-0.44545 -5.929053,-0.66818 -1.903173,-0.48039 -3.806271,-0.96077 -5.709407,-1.44116 -2.346648,-0.96518 -4.693203,-1.93032 -7.039804,-2.89548 -0.638478,-0.86047 -1.27693,-1.7209 -1.915394,-2.58134 0.4972,-0.92547 0.99438,-1.85091 1.49157,-2.77636 2.140537,-1.15046 4.280989,-2.30087 6.421484,-3.4513 0.656288,-0.81113 1.312549,-1.62223 1.968823,-2.43334 1.920246,-0.78194 3.840417,-1.56385 5.760622,-2.34577 2.82207,-0.62534 5.644026,-1.25066 8.466037,-1.87599 4.173345,-0.0662 8.34652,-0.13242 12.519782,-0.19863 24.893547,-0.003 74.679151,-0.009 74.679151,-0.009 0,0 1.65536,-2.12864 2.48304,-3.19296 0.46547,-0.28598 0.93093,-0.57194 1.39639,-0.85791 0.85111,-0.15008 2.5533,-0.45024 2.5533,-0.45024 l -1.2449,4.53842 12.68502,-0.0273 13.207,-4.31354 c 0,0 14.54422,-16.07497 21.81634,-24.11245 1.03689,-0.5743 2.07374,-1.14857 3.1106,-1.72285 4.00032,-0.0144 12.00071,-0.0431 12.00071,-0.0431 l -10.63999,31.50047 c 0,0 3.05533,-0.79879 4.58299,-1.19818 3.10391,-0.11776 9.31155,-0.35326 9.31155,-0.35326 l -7.96652,4.20085 c 0,0 -0.29995,3.15433 -0.44992,4.73149 -0.70774,0.42167 -1.41544,0.84333 -2.12316,1.26499 -4.95507,1.59736 -9.90994,3.19466 -14.86491,4.792 -3.95639,0.90896 -7.91262,1.81789 -11.86893,2.72683 -3.35884,0.68406 -6.71754,1.3681 -10.07631,2.05214 -2.71583,0.3223 -5.43155,0.64458 -8.14733,0.96687 -13.45214,0.17928 -40.35562,0.53783 -40.35562,0.53783 0,0 -0.15808,1.41315 -0.23712,2.11972 -1.431819,0.32079 -2.863588,0.64157 -4.295386,0.96236 -0.623311,0.6715 -1.246595,1.34297 -1.86989,2.01446 -3.776573,0.48768 -7.552992,0.97535 -11.329487,1.46302 -2.849825,-0.25235 -5.699535,-0.50469 -8.549302,-0.75704 -0.366228,-0.30924 -0.73244,-0.61846 -1.098661,-0.92769 -0.03919,-1.71812 -0.117565,-5.15425 -0.117565,-5.15425 z"
       sodipodi:nodetypes="ccccccccccccccccccccccccccccccccccccccccc"
       transform="translate(13.999046,-106.46397)" /></g></svg>
