<?xml version="1.0" encoding="UTF-8" standalone="no"?>
<!-- Created with Inkscape (http://www.inkscape.org/) -->

<svg
   width="33.866665mm"
   height="10.726203mm"
   viewBox="0 0 33.866665 10.726202"
   version="1.1"
   id="svg1"
   xml:space="preserve"
   xmlns="http://www.w3.org/2000/svg"
   xmlns:svg="http://www.w3.org/2000/svg"><defs
     id="defs1" /><g
     id="layer2"
     transform="matrix(-0.18587381,0,0,0.18587381,39.070779,8.9651701e-7)"><path
       style="fill:#000000;fill-opacity:1;stroke:#000002;stroke-width:0.265;stroke-linecap:butt;stroke-linejoin:miter;stroke-dasharray:none;stroke-opacity:1"
       d="m 66.351974,157.52611 c -6.437624,-0.0141 -19.312876,-0.0423 -26.738695,-0.16777 -7.42582,-0.12546 -9.402133,-0.34818 -11.341894,-0.69974 -1.939761,-0.35157 -3.842859,-0.83194 -5.967752,-1.55473 -2.124892,-0.72278 -4.471447,-1.68792 -5.963988,-2.60073 -1.492541,-0.91282 -2.130993,-1.77325 -2.201624,-2.6662 -0.07063,-0.89296 0.426551,-1.8184 1.745415,-2.85635 1.318864,-1.03796 3.459315,-2.18837 4.857706,-3.16915 1.398391,-0.98078 2.054653,-1.79188 3.342913,-2.5884 1.288259,-0.79653 3.208431,-1.57844 5.579568,-2.28207 2.371136,-0.70363 5.193093,-1.32895 8.690771,-1.67472 3.497678,-0.34577 7.670853,-0.41198 22.204258,-0.44659 14.533404,-0.0346 39.425958,-0.0376 64.319008,-0.0406 0.82768,-1.06432 1.65536,-2.12864 2.30194,-2.80379 0.64657,-0.67515 1.11203,-0.96111 1.77031,-1.17914 0.65829,-0.21802 1.50938,-0.3681 2.36048,-0.51818 0,0 -1.2449,4.53842 -1.2449,4.53842 0,0 12.68502,-0.0273 12.68502,-0.0273 0,0 13.207,-4.31354 13.207,-4.31354 7.27211,-8.03748 14.54423,-16.07497 18.69873,-20.38086 4.1545,-4.30589 5.19135,-4.88016 7.70994,-5.17448 2.51859,-0.29433 6.51874,-0.30869 10.51898,-0.32306 0,0 -10.63999,31.50047 -10.63999,31.50047 1.52766,-0.39939 3.05533,-0.79879 5.37112,-1.05736 2.31578,-0.25858 5.41957,-0.37633 8.52342,-0.49408 0,0 -7.96652,4.20085 -7.96652,4.20085 -0.14997,1.57716 -0.29995,3.15433 -0.7288,4.15375 -0.42886,0.99941 -1.13656,1.42107 -3.96795,2.43058 -2.8314,1.00952 -7.78627,2.60682 -12.24195,3.85996 -4.45568,1.25315 -8.41191,2.16208 -12.06949,2.95858 -3.65757,0.7965 -7.01627,1.48053 -10.05357,1.9837 -3.0373,0.50318 -5.75302,0.82546 -13.83698,1.07624 -8.08396,0.25079 -21.53557,0.43006 -34.98744,0.60934 -0.079,0.70657 -0.15808,1.41315 -0.913509,1.92683 -0.75543,0.51368 -2.187198,0.83446 -3.214753,1.33061 -1.027554,0.49614 -1.650836,1.16761 -3.850772,1.7472 -2.199935,0.57958 -5.976354,1.06725 -9.289514,1.18491 -3.31316,0.11766 -6.16287,-0.13468 -7.770868,-0.41548 -1.607999,-0.28079 -1.974209,-0.59001 -2.176914,-1.60368 -0.202705,-1.01368 -0.241893,-2.73173 -0.281081,-4.44981 0,0 0,4.7e-4 -6.437625,-0.0136 z"
       id="path4"
       transform="translate(13.999046,-106.46397)" /></g></svg>
